<?xml version="1.0" standalone="no"?>
<!DOCTYPE svg PUBLIC "-//W3C//DTD SVG 20010904//EN"
 "http://www.w3.org/TR/2001/REC-SVG-20010904/DTD/svg10.dtd">
<svg version="1.0" xmlns="http://www.w3.org/2000/svg"
 width="512.000000pt" height="512.000000pt" viewBox="0 0 512.000000 512.000000"
 preserveAspectRatio="xMidYMid meet">
<metadata>
Created by potrace 1.14, written by Peter Selinger 2001-2017
</metadata>
<g transform="translate(0.000000,512.000000) scale(0.100000,-0.100000)"
fill="#000000" stroke="none">
<path d="M2399 5100 c-176 -37 -347 -139 -506 -303 -110 -115 -200 -238 -284
-389 l-57 -103 -209 -6 c-224 -7 -343 -25 -488 -74 -135 -45 -287 -129 -348
-193 l-28 -29 28 -8 c15 -3 49 -22 75 -41 l48 -34 49 35 c147 106 364 166 655
181 118 6 136 5 136 -8 0 -8 -16 -58 -35 -109 -65 -173 -153 -506 -171 -645
-3 -28 -9 -55 -13 -60 -3 -5 -51 -48 -106 -96 -119 -103 -312 -299 -415 -421
l-74 -89 -23 39 c-48 76 -131 250 -161 335 -40 113 -62 230 -62 333 l0 83 -43
10 c-24 6 -59 22 -79 36 l-36 24 -6 -30 c-11 -54 -6 -191 9 -288 30 -179 134
-437 250 -617 l47 -73 -47 -73 c-114 -177 -218 -432 -250 -613 -15 -86 -20
-259 -9 -301 l6 -21 36 24 c20 14 55 30 79 36 l43 10 0 80 c0 187 89 457 223
671 l23 39 74 -89 c103 -123 296 -319 415 -421 55 -47 102 -87 104 -89 2 -1
12 -48 22 -105 38 -207 94 -412 166 -611 20 -54 32 -101 28 -105 -10 -10 -236
-4 -325 9 -176 25 -357 89 -461 164 l-49 35 -48 -34 c-26 -19 -60 -38 -75 -41
-15 -4 -27 -10 -27 -14 0 -11 129 -105 191 -140 71 -40 200 -87 304 -111 123
-29 245 -41 417 -41 l158 0 36 -67 c108 -197 212 -339 340 -463 104 -100 184
-156 301 -211 223 -105 459 -101 687 11 125 61 205 122 321 242 105 111 178
210 269 371 l67 116 167 1 c325 0 583 64 773 191 71 47 129 94 129 103 0 3
-11 8 -24 11 -13 3 -47 21 -75 41 l-52 34 -47 -33 c-142 -102 -335 -159 -592
-176 -154 -11 -204 -6 -197 19 3 9 26 76 51 149 57 164 111 368 141 530 13 68
25 124 27 126 1 1 48 41 103 88 119 102 312 298 415 421 l74 89 23 -39 c13
-21 49 -87 79 -146 94 -185 144 -366 144 -520 l0 -85 43 -10 c24 -6 59 -22 79
-36 l36 -24 6 30 c3 17 6 67 6 112 0 229 -91 509 -251 768 l-60 98 57 93 c107
172 193 379 229 548 20 90 30 259 21 322 l-7 46 -36 -25 c-20 -14 -56 -29 -79
-35 l-41 -11 -5 -111 c-6 -122 -31 -233 -78 -353 -32 -80 -104 -225 -143 -287
l-23 -39 -74 89 c-100 119 -304 327 -420 426 -52 45 -98 86 -101 91 -4 5 -10
32 -13 60 -18 139 -106 472 -171 645 -19 51 -35 101 -35 109 0 13 18 14 138 8
290 -14 500 -72 654 -182 l47 -33 52 34 c28 20 62 38 75 41 13 3 24 9 24 13 0
12 -132 108 -200 145 -82 44 -249 100 -365 122 -57 11 -166 18 -298 21 l-207
5 -27 47 c-93 164 -125 216 -189 301 -81 108 -231 257 -317 314 -147 97 -333
156 -482 155 -38 0 -109 -9 -156 -19z m307 -170 c212 -53 400 -205 568 -460
74 -112 112 -178 105 -185 -3 -3 -59 -14 -124 -25 -158 -28 -390 -88 -557
-145 l-137 -46 -148 49 c-162 55 -422 121 -575 148 -54 9 -98 20 -98 25 0 5
22 46 49 92 255 432 588 630 917 547z m-821 -846 c121 -22 343 -78 408 -103
27 -10 20 -15 -160 -105 -215 -108 -370 -199 -548 -320 -92 -63 -125 -81 -125
-68 0 55 74 309 147 510 l46 124 51 -7 c28 -4 110 -18 181 -31z m1618 -56 c69
-182 157 -484 157 -540 0 -11 -37 9 -127 70 -184 124 -332 211 -546 318 -213
107 -209 94 -46 139 131 37 209 55 354 80 186 33 167 40 208 -67z m-835 -189
c122 -52 361 -171 488 -244 118 -68 381 -242 479 -318 l70 -53 11 -80 c45
-314 46 -796 3 -1152 l-12 -93 -97 -74 c-118 -89 -319 -222 -455 -300 -120
-70 -422 -219 -522 -259 l-73 -29 -73 29 c-100 40 -402 190 -522 259 -136 78
-308 191 -441 290 l-112 83 -11 99 c-43 364 -43 761 0 1126 l11 98 98 74 c118
89 320 223 454 300 186 106 557 284 595 285 7 0 56 -18 109 -41z m-1459 -925
c-11 -134 -6 -708 7 -814 l5 -45 -159 160 c-134 136 -302 327 -302 345 0 27
444 509 457 496 2 -2 -1 -66 -8 -142z m3079 -259 c40 -49 72 -92 72 -95 0 -18
-167 -209 -302 -345 l-158 -160 8 105 c4 58 7 238 7 400 0 162 -3 342 -7 400
l-8 105 158 -160 c87 -88 191 -200 230 -250z m-2476 -1236 c73 -45 218 -123
321 -175 209 -105 203 -93 72 -133 -142 -42 -479 -111 -541 -111 -27 0 -204
548 -204 630 0 16 21 5 109 -56 61 -41 170 -111 243 -155z m1823 93 c-34 -135
-65 -234 -122 -390 l-46 -124 -51 7 c-117 15 -319 57 -436 89 -209 57 -210 42
7 150 208 105 379 204 553 323 70 48 116 73 118 65 2 -6 -9 -60 -23 -120z
m-935 -508 c167 -57 399 -117 561 -145 68 -11 125 -22 126 -23 5 -5 -122 -206
-175 -276 -396 -528 -925 -516 -1326 30 -51 69 -146 225 -146 239 0 5 44 16
98 26 159 27 412 92 564 144 79 27 148 50 153 50 6 1 71 -20 145 -45z"/>
<path d="M2089 3145 c-21 -11 -63 -103 -247 -547 -122 -293 -222 -543 -222
-556 0 -29 51 -82 79 -82 61 0 75 20 162 233 l44 107 229 -2 229 -3 61 -148
c34 -81 70 -155 79 -164 23 -24 89 -23 116 1 45 41 44 43 -189 602 -157 378
-227 535 -246 552 -29 25 -58 27 -95 7z m121 -483 c40 -95 70 -175 68 -178 -3
-2 -70 -3 -150 -2 l-145 3 67 160 c36 88 69 169 73 179 4 10 9 17 11 15 2 -2
36 -82 76 -177z"/>
<path d="M2759 3131 c-51 -52 -32 -121 39 -141 20 -5 70 -10 110 -10 l72 0 0
-420 0 -420 -72 0 c-40 0 -90 -5 -110 -10 -71 -20 -90 -89 -39 -141 l29 -29
277 0 c333 0 345 3 345 94 0 22 -8 40 -25 56 -23 22 -37 25 -125 28 l-100 4 0
418 0 418 100 4 c88 3 102 6 125 28 17 16 25 34 25 56 0 91 -12 94 -345 94
l-277 0 -29 -29z"/>
</g>
</svg>
